<?xml version="1.0" encoding="UTF-8" standalone="no"?>
<svg width="208px" height="225px" viewBox="0 0 208 225" version="1.1" xmlns="http://www.w3.org/2000/svg" xmlns:xlink="http://www.w3.org/1999/xlink">
    <!-- Generator: Sketch 42 (36781) - http://www.bohemiancoding.com/sketch -->
    <title>Empty State1</title>
    <desc>Created with Sketch.</desc>
    <defs>
        <path d="M0,104 C0,161.437656 46.5623438,208 104,208 C161.437656,208 208,161.437656 208,104 C208,46.5623438 161.437656,0 104,0 C46.5623438,0 0,46.5623438 0,104" id="path-1"></path>
        <polygon id="path-3" points="0.28965098 0.587065287 0.28965098 0.024903125 0.28088125 0.024903125 0.28088125 0.587065287 0.28965098 0.587065287"></polygon>
        <polygon id="path-5" points="0.265743716 0.587065287 0.265743716 0.024903125 0.2552875 0.024903125 0.2552875 0.587065287 0.265743716 0.587065287"></polygon>
    </defs>
    <g id="Page-1" stroke="none" stroke-width="1" fill="none" fill-rule="evenodd">
        <g id="Empty-State1">
            <g id="Group-3">
                <g id="Group">
                    <mask id="mask-2" fill="white">
                        <use xlink:href="#path-1"></use>
                    </mask>
                    <use id="Mask" fill="#F6A623" xlink:href="#path-1"></use>
                    <path d="M99.5804469,140.082659 C82.1876656,140.082659 67.9579469,137.884441 67.9579469,155.060284 L67.9579469,201.581534 C79.1875094,205.730972 91.3282906,207.999878 104.000041,207.999878 C115.476603,207.999878 126.517259,206.136003 136.840884,202.702784 L136.840884,155.060284 C136.840884,137.884441 122.611166,140.082659 105.218384,140.082659 L99.5804469,140.082659 Z" id="Fill-3" fill="#7F945C" mask="url(#mask-2)"></path>
                </g>
                <g id="Group-2" transform="translate(4.000000, 24.000000)">
                    <g id="Page-1">
                        <g id="Group-18" transform="translate(122.750000, 140.062500)">
                            <mask id="mask-4" fill="white">
                                <use xlink:href="#path-3"></use>
                            </mask>
                            <g id="Clip-17"></g>
                            <polyline id="Fill-16" fill="#2E1E45" mask="url(#mask-4)" points="0.288189358 0.024903125 0.28088125 0.305315496 0.288189358 0.587065287"></polyline>
                        </g>
                        <g id="Group-21" transform="translate(66.281250, 140.062500)">
                            <mask id="mask-6" fill="white">
                                <use xlink:href="#path-5"></use>
                            </mask>
                            <g id="Clip-20"></g>
                            <polyline id="Fill-19" fill="#2E1E45" mask="url(#mask-6)" points="0.2552875 0.024903125 0.2552875 0.587065287 0.264282095 0.306652916"></polyline>
                        </g>
                        <g id="Group-71" transform="translate(0.500000, 0.000000)">
                            <path d="M53.4017844,165.379431 C53.0849094,165.379431 52.7676281,165.369275 52.4487219,165.348556 C47.5144094,165.030463 38.4298469,161.904369 32.9397844,144.568869 L21.0000969,110.958181 C19.6984719,107.294213 21.6135344,103.269088 25.2775031,101.967463 C28.9426906,100.664619 32.9670031,102.581306 34.2682219,106.244869 L46.3318156,140.218338 C48.9082531,148.413213 52.1757219,151.220806 53.3542531,151.297181 C54.0079094,151.353244 55.8855969,150.201931 57.6816281,146.457119 L66.5724094,121.348838 C67.8699719,117.68365 71.8938781,115.763713 75.5590656,117.062088 C79.2242531,118.360056 81.1433781,122.383556 79.8454094,126.048744 L70.7283469,151.796056 L70.5906281,152.093838 C66.7101281,160.480869 60.3372844,165.379431 53.4017844,165.379431" id="Fill-62" fill="#7F945C"></path>
                            <path d="M127.526566,152.576828 L127.383566,152.273359 L118.084503,126.519547 C116.750784,122.826328 118.663816,118.751641 122.356628,117.417922 C126.049441,116.084609 130.124534,117.997641 131.458253,121.690453 L140.521284,146.791016 C142.294159,150.411109 144.212472,151.690797 145.032284,151.633516 C146.006066,151.570141 149.424253,149.399953 152.256222,140.566047 L152.341941,140.315391 L164.559909,106.586484 C165.896878,102.894484 169.974409,100.986328 173.665191,102.323297 C177.357191,103.660672 179.265753,107.737391 177.928378,111.428984 L165.754691,145.036828 C160.160628,162.356891 150.956222,165.495172 145.959753,165.822203 C145.628253,165.844141 145.297566,165.854703 144.968097,165.854703 C137.946472,165.854703 131.482628,160.961422 127.526566,152.576828 Z" id="Fill-54" fill="#7F945C"></path>
                            <path d="M161.194351,114.294326 L177.485721,123.542913 L178.565595,114.294326 L177.129005,113.759158 C177.129005,113.759158 172.360338,114.177457 169.30073,112.643391 C164.968482,110.471232 164.427967,105.045738 164.427967,105.045738 L161.194351,114.294326 Z M35.6669065,108.416364 L38.1014605,116.206988 L23.866586,125.004829 L22.5,116.729267 L23.1786159,116.729267 C23.1786159,116.729267 26.2122201,117.87835 30.5444684,115.706191 C34.8767167,113.534031 35.6669065,108.416364 35.6669065,108.416364 Z" id="Path-5" fill="#1E2A45"></path>
                            <path d="M83.1191977,113.436656 L85.6036079,112.959588 C85.6036079,112.959588 85.5750216,113.541071 85.6036079,114.095021 C85.628748,114.58219 85.7434591,115.714503 85.7434591,115.714503 L83.1191977,113.436656 Z" id="Path-3" fill="#39435C"></path>
                            <path d="M110.673367,113.111869 L108.140004,112.918572 C108.140004,112.918572 108.188303,113.42169 108.140004,114.048482 C108.098126,114.591943 107.869473,115.803862 107.869473,115.803862 L110.673367,113.111869 Z" id="Path-4" fill="#39435C"></path>
                            <path d="M97.2786984,113.306134 C93.5262261,113.562415 89.0190375,113.049069 85.6045063,112.243475 L85.6045063,113.956631 C85.6150688,120.0971 90.6582563,125.072444 96.879975,125.072444 C103.055788,125.072444 108.072569,120.166163 108.152194,114.086631 L108.152194,111.622802 C104.348069,112.635989 101.368106,113.026842 97.2786984,113.306134 Z" id="Fill-22" fill="#EFBA9D"></path>
                            <path d="M151.681256,54.9061625 C151.681256,84.9832875 127.981037,109.364788 98.7436312,109.364788 C69.5086625,109.364788 47.0722875,86.20285 47.0722875,56.125725 C47.0722875,47.4474125 47.7811937,38.0220063 51.2924125,30.7403813 C59.9467562,12.7881938 77.9456625,0.4475375 98.7436312,0.4475375 C127.981037,0.4475375 151.681256,24.8290375 151.681256,54.9061625" id="Fill-26" fill="#736253"></path>
                            <path d="M59.9840906,65.7316687 C59.9840906,70.3361062 56.2043406,74.0675125 51.5430281,74.0675125 C46.8800906,74.0675125 43.1007469,70.3361062 43.1007469,65.7316687 C43.1007469,61.1272312 46.8800906,57.395825 51.5430281,57.395825 C56.2043406,57.395825 59.9840906,61.1272312 59.9840906,65.7316687" id="Fill-28" fill="#EFC2A7"></path>
                            <path d="M43.1037937,65.5429656 L43.1037937,65.9211844 C43.1907312,69.7712156 45.9211375,72.9777469 49.573325,73.8402156 C49.323075,71.9300281 49.1934812,69.9808406 49.1934812,68.0056531 L49.1934812,57.7238719 C45.7330437,58.7118719 43.1874812,61.8274031 43.1037937,65.5429656 Z" id="Fill-30" fill="#FFD8C3"></path>
                            <path d="M89.206425,11.7926781 C81.0603,11.7926781 65.286425,13.0752094 65.286425,13.0752094 C64.512925,13.7845219 63.7597375,14.5202406 63.0264562,15.2811469 C70.3418,14.4174594 96.2820812,13.8190531 96.2820812,13.8190531 C96.2820812,13.8190531 103.542175,13.9470219 112.127862,15.6699281 C103.935831,12.8204906 95.6158312,12.4004281 93.1060187,11.9856469 C92.2837687,11.8491469 90.9114562,11.7926781 89.206425,11.7926781 M62.3780812,15.9664906 C59.8597375,18.6769906 57.6009875,21.6897406 55.6505812,24.9527406 C56.0068625,25.4329281 56.345675,25.8351156 56.6954562,26.1662094 C59.3494875,23.5024281 62.6592062,21.2193031 66.2013,19.2786469 C64.7676437,17.9047094 63.5846437,16.7135844 62.3780812,15.9664906" id="Fill-32" fill="#736253"></path>
                            <path d="M141.283288,68.0055719 C141.283288,93.0139156 120.562913,113.475916 95.2368813,113.475916 C69.9128813,113.475916 49.1933188,93.0139156 49.1933188,68.0055719 L49.1933188,48.3024469 C49.1933188,43.4591344 49.970475,38.7856344 51.4081938,34.3993531 C54.0577563,26.3129469 62.6495375,20.5905094 71.4017875,16.7238219 C82.4164438,11.8585719 95.9689438,16.0384781 95.9689438,16.0384781 L96.2821625,15.7841656 C96.2821625,15.7841656 131.61535,15.0411344 138.254694,32.1243531 C140.210381,37.1561656 141.283288,42.6116969 141.283288,48.3024469 L141.283288,68.0055719 L145.589833,138.901697" id="Fill-34" fill="#FFD8C3"></path>
                            <path d="M181.951414,106.885716 C182.010115,106.640592 182.144072,106.421532 182.330939,106.259608 C182.403703,106.258195 182.47724,106.25179 182.551178,106.240116 L197.141647,103.963491 C198.019553,103.831459 198.618366,103.001084 198.481053,102.114241 C198.341303,101.230647 197.518241,100.623303 196.641553,100.758991 L182.051084,103.035616 C181.936531,103.053051 181.826597,103.082394 181.72234,103.122217 C181.422586,102.947839 181.201207,102.642933 181.142059,102.269956 C181.05782,101.746165 181.334312,101.247233 181.779493,101.021965 L194.953909,98.968525 C195.831003,98.8348687 196.435503,98.0024625 196.295347,97.1188687 C196.156409,96.2324312 195.334159,95.621025 194.453003,95.7624 L181.650352,97.7595916 L181.649872,97.7565188 L177.071709,98.3833905 L177.195381,97.1939031 L179.904662,93.3215281 C180.344225,92.8019344 180.2776,92.0251844 179.752725,91.5807469 C179.233537,91.1346844 178.447037,91.2000906 178.011944,91.7184656 L171.234069,98.4004656 C171.043761,98.6241516 170.948472,98.8954975 170.943223,99.1675501 C170.730186,99.2073758 170.517216,99.2547988 170.304632,99.3099827 L170.298434,99.3108313 C170.129789,99.3554909 169.961283,99.4043071 169.793181,99.4580969 C164.843025,101.042066 162.1114,106.341597 163.696181,111.293784 C165.255634,116.166823 170.413223,118.886959 175.294268,117.463436 L183.936318,116.280814 C183.993977,116.277958 184.052055,116.271942 184.110366,116.262628 L184.404365,116.216764 L184.524903,116.200269 L184.524551,116.198015 L194.172772,114.692878 C195.054741,114.559628 195.655584,113.730066 195.516647,112.844034 C195.375678,111.956784 194.554241,111.348628 193.677147,111.488784 L183.611897,113.057722 C183.488391,113.076613 183.370426,113.109239 183.259256,113.153823 C182.973861,112.977417 182.764073,112.680433 182.707747,112.319363 C182.658834,112.004366 182.736278,111.700677 182.901459,111.4593 C183.050698,111.479148 183.205087,111.477823 183.361037,111.452628 L196.575537,109.392941 C197.454662,109.258472 198.055912,108.429316 197.916975,107.543284 C197.778037,106.656847 196.954569,106.047878 196.076662,106.186409 L182.864194,108.245284 C182.805555,108.254506 182.748133,108.266806 182.692067,108.281996 C182.419198,108.180891 182.189207,107.980031 182.052134,107.715498 C182.031075,107.439416 181.997622,107.162589 181.951414,106.885716 Z" id="Combined-Shape" fill="#FFD8C3"></path>
                            <path d="M71.5577875,59.91815 C69.1523813,59.6049313 66.8920063,61.5435563 66.5345063,64.2248063 L65.801225,69.7104 C65.443725,72.3920563 67.1203188,74.8417438 69.525725,75.1553688 C71.93235,75.4685875 74.192725,73.5299625 74.550225,70.8483063 L75.2822875,65.3627125 C75.6410063,62.6814625 73.9644125,60.2313688 71.5577875,59.91815" id="Fill-36" fill="#F8BD99"></path>
                            <path d="M122.215903,26.0730156 C122.215903,28.1038594 124.626591,45.7635469 124.648122,47.7679844 C124.839059,65.4926719 126.250372,81.8048281 135.707059,90.2739219 C141.282028,84.6197344 143.097966,76.3842344 143.097966,68.2433906 L143.097966,48.3850781 C143.097966,42.6492344 140.626341,36.7403281 138.654809,31.6687031 C131.964278,14.4510156 96.2821219,13.8192969 96.2821219,13.8192969 C96.2821219,13.8192969 65.4286531,14.5306406 61.5302781,15.5218906 C66.8391531,17.7863281 70.5413094,29.4627656 94.5417469,29.4627656 C117.773153,29.4627656 122.215903,22.0324531 122.215903,26.0730156" id="Fill-38" fill="#736253"></path>
                            <path d="M124.957887,58.0906344 C122.032481,59.3532594 119.971575,62.2067594 119.896419,65.5428844 L119.896419,65.9215094 C119.988637,70.0039156 123.05095,73.3611656 127.03545,73.9701344 C125.880887,69.1414469 125.27395,63.7679781 124.957887,58.0906344" id="Fill-40" fill="#A98571"></path>
                            <path d="M128.336506,57.3959063 C127.135225,57.3959063 125.992444,57.6433125 124.957725,58.0897813 C125.274194,63.767125 125.881131,69.1405938 127.035694,73.968875 C127.459819,74.033875 127.8941,74.0675938 128.336506,74.0675938 C132.997006,74.0675938 136.777569,70.3361875 136.777569,65.73175 C136.777569,61.1273125 132.997006,57.3959063 128.336506,57.3959063" id="Fill-42" fill="#432C1C"></path>
                            <path d="M134.656537,65.7316687 C134.656537,70.3361062 130.875569,74.0675125 126.215475,74.0675125 C121.551725,74.0675125 117.772787,70.3361062 117.772787,65.7316687 C117.772787,61.1272312 121.551725,57.395825 126.215475,57.395825 C130.875569,57.395825 134.656537,61.1272312 134.656537,65.7316687" id="Fill-44" fill="#FFD8C3"></path>
                            <path d="M54.7495594,63.0983969 C56.0121844,63.0983969 57.0404031,64.1136156 57.0404031,65.3608031 C57.0404031,66.6075844 56.0771844,67.4818344 54.8153719,67.4818344 C53.5515281,67.4818344 52.4587156,66.6075844 52.4587156,65.3608031 C52.4587156,64.1136156 53.4869344,63.0983969 54.7495594,63.0983969" id="Fill-46" fill="#3D3229"></path>
                            <path d="M94.1883906,63.0983969 C95.4502031,63.0983969 96.4784219,64.1136156 96.4784219,65.3608031 C96.4784219,66.6075844 95.5160156,67.4818344 94.2529844,67.4818344 C92.9903594,67.4818344 91.8975469,66.6075844 91.8975469,65.3608031 C91.8975469,64.1136156 92.9257656,63.0983969 94.1883906,63.0983969" id="Fill-48" fill="#3D3229"></path>
                            <polygon id="Fill-50" fill="#736253" points="60.5242812 29.46175 94.5428437 29.46175 94.5428437 14.8395938 60.5242812 14.8395938"></polygon>
                            <path d="M53.1207406,22.1508344 C53.1207406,18.1135219 56.4357406,14.8399594 60.5254594,14.8399594 C64.6139594,14.8399594 67.9277406,18.1135219 67.9277406,22.1508344 C67.9277406,26.1881469 64.6139594,29.4617094 60.5254594,29.4617094 C56.4357406,29.4617094 53.1207406,26.1881469 53.1207406,22.1508344" id="Fill-52" fill="#736253"></path>
                            <path d="M17.1333193,106.479744 C17.0758095,106.234507 16.9444783,106.015343 16.7611797,105.853358 C16.6898352,105.851944 16.6177343,105.845538 16.5452406,105.833866 L2.23670937,103.557241 C1.37586562,103.425209 0.788428125,102.594834 0.922896875,101.707991 C1.06020937,100.824397 1.86742812,100.217053 2.72705312,100.352741 L17.0355844,102.629366 C17.1479586,102.646801 17.2557908,102.676145 17.3580454,102.715968 C17.6520607,102.54159 17.8692341,102.236684 17.9272219,101.863706 C18.0094985,101.339889 17.7384141,100.840935 17.3017724,100.615682 L4.38231875,98.562275 C3.52188125,98.4286187 2.9291625,97.5962125 3.066475,96.7126187 C3.20256875,95.8261812 4.008975,95.214775 4.873475,95.35615 L17.4286855,97.3533641 L17.4291594,97.3502688 L21.9189976,97.9771388 L21.7977688,96.7876531 L19.1404875,92.9152781 C18.7098625,92.3956844 18.7748625,91.6189344 19.2895813,91.1744969 C19.7986125,90.7284344 20.5700813,90.7938406 20.9966438,91.3122156 L27.6437063,97.9942156 C27.8303468,98.2179047 27.9237698,98.489255 27.9288906,98.7613113 C28.1376282,98.8011027 28.3463005,98.8484777 28.5545964,98.9035995 L28.5616281,98.9045813 C28.7268587,98.9493263 28.8919691,98.9981042 29.0566844,99.0518469 C33.9113719,100.635816 36.5901844,105.935347 35.0358719,110.887534 C33.5067891,115.760611 28.4487473,118.480752 23.661809,117.057152 L15.1870937,115.874577 C15.1304651,115.871727 15.0734249,115.865707 15.0161562,115.856378 L14.7266683,115.810329 L14.6097844,115.794019 L14.6101251,115.79179 L5.1479375,114.286628 C4.2834375,114.153378 3.69396875,113.323816 3.8300625,112.437784 C3.96859375,111.550534 4.77378125,110.942378 5.63421875,111.082534 L15.504875,112.651472 C15.6260255,112.67037 15.741744,112.703011 15.8507992,112.74762 C16.1306661,112.571219 16.3363879,112.274215 16.3915969,111.913113 C16.4397289,111.598102 16.3638498,111.294399 16.2019011,111.053017 C16.0554847,111.0729 15.9040154,111.071587 15.7510219,111.046378 L2.79164687,108.986691 C1.92958437,108.852222 1.34011562,108.023066 1.47620937,107.137034 C1.61230312,106.250597 2.41992812,105.641628 3.28117812,105.780159 L16.2385219,107.839034 C16.2959382,107.848247 16.3521672,107.860532 16.4070719,107.875701 C16.6746897,107.774569 16.9001988,107.57369 17.0345779,107.309147 C17.0552301,107.03319 17.0880263,106.756491 17.1333193,106.479744 Z" id="Combined-Shape" fill="#FFD8C3"></path>
                            <path d="M87.17745,96.3554031 L87.1689188,96.3554031 L73.7833875,96.2635906 C73.1106375,96.2591219 72.5687,95.7098719 72.5731688,95.0367156 C72.5776375,94.3664031 73.1224188,93.8260906 73.7915125,93.8260906 L73.8000438,93.8260906 L87.185575,93.9179031 C87.8587313,93.9227781 88.4006688,94.4716219 88.3962,95.1451844 C88.391325,95.8150906 87.8465438,96.3554031 87.17745,96.3554031" id="Fill-70" fill="#3D3229"></path>
                        </g>
                    </g>
                    <polygon id="Rectangle-7" fill="#1E2A45" transform="translate(86.434367, 121.486042) scale(-1, 1) rotate(42.000000) translate(-86.434367, -121.486042) " points="83.1507313 113.626174 88.2289408 112.767563 92.0319174 129.783182 80.8368165 130.204521"></polygon>
                    <polygon id="Rectangle-7" fill="#1E2A45" transform="translate(108.928312, 121.325790) rotate(42.000000) translate(-108.928312, -121.325790) " points="105.096865 113.645373 110.076849 112.830146 114.071898 129.701063 103.784725 129.821435"></polygon>
                    <circle id="Oval-4" fill="#000000" cx="98.6102392" cy="142" r="2"></circle>
                    <circle id="Oval-4" fill="#000000" cx="98.6102392" cy="129.838261" r="2"></circle>
                    <circle id="Oval-4" fill="#000000" cx="98.6102392" cy="177.838261" r="2"></circle>
                    <circle id="Oval-4" fill="#000000" cx="98.6102392" cy="166" r="2"></circle>
                    <circle id="Oval-4" fill="#000000" cx="98.6102392" cy="154" r="2"></circle>
                </g>
            </g>
        </g>
    </g>
</svg>